 <svg version="1.0" xmlns="http://www.w3.org/2000/svg" width="100px" height="100px" viewBox="0 0 700 700" preserveAspectRatio="xMidYMid meet">
<metadata>
Created by potrace 1.12, written by Peter Selinger 2001-2015
</metadata>
<g transform="translate(0,700) scale(0.100000,-0.100000)" fill="#000000" stroke="none">
<path d="M3415 4689 c-70 -7 -143 -20 -222 -37 -65 -14 -200 -72 -291 -123
-137 -79 -261 -192 -373 -339 -66 -88 -162 -291 -177 -375 -3 -16 -12 -40 -20
-52 l-14 -23 -1159 0 -1159 0 0 -240 0 -240 1165 0 1165 0 10 -22 c5 -13 16
-50 26 -83 85 -297 326 -581 612 -719 197 -96 425 -139 630 -117 296 32 520
138 728 346 144 144 247 313 298 490 10 33 21 70 26 83 l10 22 1165 0 1165 0
0 240 0 240 -1159 0 -1160 0 -15 22 c-9 12 -16 31 -16 43 0 26 -44 144 -85
225 -112 228 -306 422 -532 534 -76 38 -201 86 -223 86 -7 0 -27 4 -44 9 -90
27 -253 41 -351 30z m210 -669 c108 -31 174 -69 251 -145 100 -100 164 -246
164 -375 0 -128 -64 -274 -165 -375 -100 -101 -246 -165 -375 -165 -129 0
-275 64 -375 165 -101 100 -165 246 -165 375 0 129 64 275 164 375 141 140
329 194 501 145z"></path>
</g>
</svg>
